<?xml version="1.0" standalone="no"?>
<!DOCTYPE svg PUBLIC "-//W3C//DTD SVG 20010904//EN"
 "http://www.w3.org/TR/2001/REC-SVG-20010904/DTD/svg10.dtd">
<svg version="1.0" xmlns="http://www.w3.org/2000/svg"
 width="588.000000pt" height="366.000000pt" viewBox="0 0 588.000000 366.000000"
 preserveAspectRatio="xMidYMid meet">

<g transform="translate(0.000000,366.000000) scale(0.100000,-0.100000)"
fill="#000000" stroke="none">
<path d="M3738 3633 c12 -8 22 -22 22 -29 0 -8 5 -14 10 -14 6 0 10 6 10 14 0
8 7 16 15 20 31 12 13 26 -32 25 -47 0 -47 -1 -25 -16z"/>
<path d="M4075 3640 c3 -5 15 -10 25 -10 10 0 22 5 25 10 4 6 -7 10 -25 10
-18 0 -29 -4 -25 -10z"/>
<path d="M3850 3615 c0 -15 7 -17 53 -11 28 3 70 6 91 6 64 0 37 7 -56 15 -80
6 -88 5 -88 -10z"/>
<path d="M4578 3613 c12 -2 30 -2 40 0 9 3 -1 5 -23 4 -22 0 -30 -2 -17 -4z"/>
<path d="M4402 3579 c2 -6 8 -10 13 -10 5 0 11 4 13 10 2 6 -4 11 -13 11 -9 0
-15 -5 -13 -11z"/>
<path d="M3801 3563 c-8 -15 -4 -18 21 -20 30 -2 30 -2 13 17 -22 24 -22 24
-34 3z"/>
<path d="M4360 3550 c-12 -8 -10 -10 8 -10 13 0 20 4 17 10 -7 12 -6 12 -25 0z"/>
<path d="M3715 3495 c-5 -11 -13 -23 -18 -26 -5 -4 -7 -15 -5 -25 3 -15 6 -14
21 10 10 15 16 35 14 44 -3 15 -5 14 -12 -3z"/>
<path d="M4360 3438 c0 -7 9 -24 20 -38 16 -20 20 -22 20 -7 0 9 -4 17 -10 17
-5 0 -10 9 -10 20 0 11 -4 20 -10 20 -5 0 -10 -6 -10 -12z"/>
<path d="M3666 3415 c-3 -8 -1 -15 4 -15 6 0 10 7 10 15 0 8 -2 15 -4 15 -2 0
-6 -7 -10 -15z"/>
<path d="M3371 3354 c0 -11 3 -14 6 -6 3 7 2 16 -1 19 -3 4 -6 -2 -5 -13z"/>
<path d="M233 3334 c-3 -8 -1 -20 5 -26 16 -16 42 -2 42 22 0 24 -38 28 -47 4z"/>
<path d="M4430 3303 c0 -10 5 -25 10 -33 7 -11 10 -7 10 18 0 17 -4 32 -10 32
-5 0 -10 -8 -10 -17z"/>
<path d="M3231 3284 c0 -11 3 -14 6 -6 3 7 2 16 -1 19 -3 4 -6 -2 -5 -13z"/>
<path d="M2205 3270 c-3 -5 -1 -10 4 -10 6 0 11 5 11 10 0 6 -2 10 -4 10 -3 0
-8 -4 -11 -10z"/>
<path d="M4947 3271 c-14 -5 -2 -12 45 -25 35 -10 67 -23 73 -27 12 -12 35
-11 35 1 0 6 -7 10 -15 10 -8 0 -15 4 -15 8 0 11 -66 42 -88 41 -9 0 -25 -4
-35 -8z"/>
<path d="M701 3254 c0 -11 3 -14 6 -6 3 7 2 16 -1 19 -3 4 -6 -2 -5 -13z"/>
<path d="M4848 3243 c7 -3 16 -2 19 1 4 3 -2 6 -13 5 -11 0 -14 -3 -6 -6z"/>
<path d="M2947 3216 c-4 -10 -5 -21 -2 -24 9 -9 17 6 13 25 -3 17 -4 17 -11
-1z"/>
<path d="M2245 3210 c4 -6 11 -8 16 -5 14 9 11 15 -7 15 -8 0 -12 -5 -9 -10z"/>
<path d="M4461 3194 c0 -11 3 -14 6 -6 3 7 2 16 -1 19 -3 4 -6 -2 -5 -13z"/>
<path d="M416 3185 c-3 -8 -1 -15 4 -15 6 0 10 7 10 15 0 8 -2 15 -4 15 -2 0
-6 -7 -10 -15z"/>
<path d="M4260 3185 c-16 -19 -7 -30 14 -18 9 5 12 13 7 21 -6 10 -11 10 -21
-3z"/>
<path d="M3066 3174 c-17 -16 -21 -34 -8 -34 13 1 42 27 42 39 0 16 -16 14
-34 -5z"/>
<path d="M580 3160 c0 -17 3 -19 19 -10 32 16 34 30 7 30 -19 0 -26 -5 -26
-20z"/>
<path d="M2518 3173 c7 -3 16 -2 19 1 4 3 -2 6 -13 5 -11 0 -14 -3 -6 -6z"/>
<path d="M3338 3140 c-4 -47 7 -54 16 -9 8 42 8 49 -3 49 -5 0 -11 -18 -13
-40z"/>
<path d="M1511 3154 c0 -11 3 -14 6 -6 3 7 2 16 -1 19 -3 4 -6 -2 -5 -13z"/>
<path d="M515 3150 c-3 -5 -1 -10 4 -10 6 0 11 5 11 10 0 6 -2 10 -4 10 -3 0
-8 -4 -11 -10z"/>
<path d="M4482 3140 c0 -14 2 -19 5 -12 2 6 2 18 0 25 -3 6 -5 1 -5 -13z"/>
<path d="M3533 3115 c0 -22 2 -30 4 -17 2 12 2 30 0 40 -3 9 -5 -1 -4 -23z"/>
<path d="M3231 3124 c0 -11 3 -14 6 -6 3 7 2 16 -1 19 -3 4 -6 -2 -5 -13z"/>
<path d="M1491 3114 c0 -11 3 -14 6 -6 3 7 2 16 -1 19 -3 4 -6 -2 -5 -13z"/>
<path d="M318 3065 c-19 -26 -22 -35 -10 -35 11 1 43 48 35 53 -5 3 -16 -6
-25 -18z"/>
<path d="M810 3070 c0 -5 5 -10 10 -10 6 0 10 5 10 10 0 6 -4 10 -10 10 -5 0
-10 -4 -10 -10z"/>
<path d="M2600 3060 c0 -5 5 -10 11 -10 5 0 7 5 4 10 -3 6 -8 10 -11 10 -2 0
-4 -4 -4 -10z"/>
<path d="M3820 3058 c0 -7 4 -19 9 -27 11 -17 25 3 17 24 -7 18 -26 20 -26 3z"/>
<path d="M1468 3054 c-5 -4 -8 -21 -8 -38 0 -21 3 -27 11 -19 6 6 9 23 7 38
-2 15 -6 23 -10 19z"/>
<path d="M3302 3010 c0 -19 2 -27 5 -17 2 9 2 25 0 35 -3 9 -5 1 -5 -18z"/>
<path d="M186 2983 c-9 -9 -7 -41 2 -47 5 -3 15 3 24 13 14 16 14 19 -2 29
-10 6 -21 8 -24 5z"/>
<path d="M3671 2974 c0 -11 3 -14 6 -6 3 7 2 16 -1 19 -3 4 -6 -2 -5 -13z"/>
<path d="M2115 2958 c-30 -11 -45 -25 -45 -42 0 -6 5 -5 12 2 7 7 19 12 28 12
8 0 23 9 33 20 19 22 15 23 -28 8z"/>
<path d="M3091 2944 c0 -11 3 -14 6 -6 3 7 2 16 -1 19 -3 4 -6 -2 -5 -13z"/>
<path d="M3965 2949 c-10 -15 3 -25 16 -12 7 7 7 13 1 17 -6 3 -14 1 -17 -5z"/>
<path d="M566 2931 c-13 -15 -16 -25 -9 -32 13 -13 36 14 31 37 -3 14 -6 13
-22 -5z"/>
<path d="M2511 2934 c0 -11 3 -14 6 -6 3 7 2 16 -1 19 -3 4 -6 -2 -5 -13z"/>
<path d="M906 2923 c-12 -12 -6 -33 9 -33 8 0 15 6 15 14 0 17 -14 28 -24 19z"/>
<path d="M1210 2874 c0 -8 5 -12 10 -9 6 4 8 11 5 16 -9 14 -15 11 -15 -7z"/>
<path d="M4033 2883 c-18 -7 -16 -23 2 -23 8 0 15 7 15 15 0 8 -1 15 -2 14 -2
0 -9 -3 -15 -6z"/>
<path d="M3893 2868 c-13 -6 -23 -16 -23 -23 0 -16 -29 -73 -41 -80 -16 -10
-70 -136 -66 -153 3 -15 25 24 74 136 11 26 19 32 34 27 13 -5 19 -2 19 10 0
8 11 33 25 55 26 41 20 48 -22 28z"/>
<path d="M1433 2841 c-10 -15 -9 -20 1 -24 23 -9 38 7 23 26 -11 16 -13 16
-24 -2z"/>
<path d="M815 2830 c-3 -5 -1 -10 4 -10 6 0 11 5 11 10 0 6 -2 10 -4 10 -3 0
-8 -4 -11 -10z"/>
<path d="M1855 2830 c-3 -5 1 -10 9 -10 9 0 16 5 16 10 0 6 -4 10 -9 10 -6 0
-13 -4 -16 -10z"/>
<path d="M5547 2834 c-3 -6 5 -22 19 -37 13 -14 24 -32 24 -40 0 -7 16 -32 36
-56 20 -23 40 -59 45 -79 5 -20 9 -120 10 -222 3 -329 14 -354 23 -53 10 317
20 281 -123 450 -11 13 -21 28 -23 35 -3 8 -7 8 -11 2z"/>
<path d="M1298 2823 c7 -3 16 -2 19 1 4 3 -2 6 -13 5 -11 0 -14 -3 -6 -6z"/>
<path d="M2786 2785 c-3 -8 -1 -15 4 -15 6 0 10 7 10 15 0 8 -2 15 -4 15 -2 0
-6 -7 -10 -15z"/>
<path d="M1453 2745 c-7 -8 -13 -22 -13 -31 0 -16 2 -16 20 1 20 18 27 45 13
45 -5 -1 -14 -7 -20 -15z"/>
<path d="M3251 2744 c0 -11 3 -14 6 -6 3 7 2 16 -1 19 -3 4 -6 -2 -5 -13z"/>
<path d="M1600 2730 c0 -5 4 -10 9 -10 6 0 13 5 16 10 3 6 -1 10 -9 10 -9 0
-16 -4 -16 -10z"/>
<path d="M602 2700 c-31 -17 -31 -18 -10 -24 34 -9 36 -8 48 13 14 28 0 32
-38 11z"/>
<path d="M740 2705 c0 -8 5 -15 10 -15 6 0 10 7 10 15 0 8 -4 15 -10 15 -5 0
-10 -7 -10 -15z"/>
<path d="M3322 2700 c0 -14 2 -19 5 -12 2 6 2 18 0 25 -3 6 -5 1 -5 -13z"/>
<path d="M4817 2647 c-37 -38 -143 -185 -170 -235 -21 -39 -17 -62 13 -62 13
0 20 7 20 18 0 24 25 46 69 61 58 19 69 15 73 -26 2 -30 8 -39 24 -41 18 -3
23 5 33 54 17 87 15 229 -5 248 -21 21 -21 21 -57 -17z m13 -107 c0 -23 -6
-33 -22 -39 -42 -16 -49 2 -17 43 27 34 39 33 39 -4z"/>
<path d="M5003 2658 c-6 -7 -23 -49 -38 -93 -15 -44 -31 -84 -36 -89 -5 -6 -9
-16 -9 -24 0 -8 -8 -30 -17 -49 -16 -34 -16 -36 3 -50 16 -12 20 -11 32 4 7 9
17 36 23 58 14 52 24 63 65 71 59 11 67 1 43 -50 -24 -47 -20 -76 8 -76 12 0
23 15 35 48 9 26 31 85 47 132 17 47 31 92 31 101 0 14 -19 29 -35 29 -2 0
-11 -22 -20 -49 -9 -27 -23 -52 -31 -55 -17 -6 -94 -8 -94 -3 0 2 7 18 16 35
22 46 4 94 -23 60z"/>
<path d="M930 2640 c0 -21 -15 -27 -25 -10 -13 22 -25 8 -25 -30 0 -33 -3 -40
-20 -40 -21 0 -27 -15 -10 -25 6 -3 10 -21 10 -38 0 -24 3 -28 10 -17 5 8 10
27 10 43 0 15 4 27 9 27 5 0 11 14 15 30 8 42 24 38 29 -7 2 -26 4 -17 5 25 1
34 0 62 -3 62 -3 0 -5 -9 -5 -20z"/>
<path d="M4488 2618 c-18 -39 -31 -77 -49 -138 -7 -25 -17 -50 -22 -57 -13
-18 -4 -57 14 -61 11 -2 21 14 34 58 14 45 23 60 37 60 12 0 18 -7 18 -24 0
-26 19 -86 31 -100 13 -14 47 21 60 63 6 20 20 54 29 76 52 119 57 155 20 155
-11 0 -19 -10 -23 -28 -9 -44 -48 -142 -56 -142 -9 0 -27 62 -37 128 -7 53
-35 58 -56 10z"/>
<path d="M190 2550 c0 -5 7 -10 15 -10 8 0 15 5 15 10 0 6 -7 10 -15 10 -8 0
-15 -4 -15 -10z"/>
<path d="M1142 2540 c0 -14 2 -19 5 -12 2 6 2 18 0 25 -3 6 -5 1 -5 -13z"/>
<path d="M1556 2515 c-3 -8 -1 -15 4 -15 6 0 10 7 10 15 0 8 -2 15 -4 15 -2 0
-6 -7 -10 -15z"/>
<path d="M2898 2509 c-16 -11 -28 -27 -28 -34 0 -7 -6 -16 -12 -18 -7 -3 -4
-6 7 -6 22 0 37 10 74 52 23 25 23 27 5 27 -10 0 -31 -10 -46 -21z"/>
<path d="M1267 2490 c-18 -18 -18 -19 0 -28 15 -8 21 -7 29 6 11 17 8 43 -4
41 -4 0 -15 -9 -25 -19z"/>
<path d="M3698 2494 c-5 -4 -8 -28 -8 -53 1 -36 3 -42 11 -28 11 19 8 93 -3
81z"/>
<path d="M972 2460 c-10 -26 -5 -60 8 -60 11 0 18 57 9 72 -6 9 -11 5 -17 -12z"/>
<path d="M3832 2460 c0 -14 2 -19 5 -12 2 6 2 18 0 25 -3 6 -5 1 -5 -13z"/>
<path d="M790 2460 c0 -5 5 -10 11 -10 5 0 7 5 4 10 -3 6 -8 10 -11 10 -2 0
-4 -4 -4 -10z"/>
<path d="M5207 2403 c-34 -49 -43 -69 -34 -75 16 -11 120 96 115 119 -7 38
-35 23 -81 -44z"/>
<path d="M587 2443 c-4 -3 -7 -11 -7 -17 0 -6 5 -5 12 2 6 6 9 14 7 17 -3 3
-9 2 -12 -2z"/>
<path d="M701 2404 c0 -11 3 -14 6 -6 3 7 2 16 -1 19 -3 4 -6 -2 -5 -13z"/>
<path d="M1416 2375 c-3 -8 -1 -15 4 -15 6 0 10 7 10 15 0 8 -2 15 -4 15 -2 0
-6 -7 -10 -15z"/>
<path d="M750 2372 c0 -5 7 -15 15 -22 8 -7 15 -8 15 -2 0 5 -7 15 -15 22 -8
7 -15 8 -15 2z"/>
<path d="M3673 2340 c0 -25 2 -35 4 -22 2 12 2 32 0 45 -2 12 -4 2 -4 -23z"/>
<path d="M1490 2360 c0 -5 7 -7 15 -4 8 4 15 8 15 10 0 2 -7 4 -15 4 -8 0 -15
-4 -15 -10z"/>
<path d="M2460 2359 c0 -5 5 -7 10 -4 6 3 10 8 10 11 0 2 -4 4 -10 4 -5 0 -10
-5 -10 -11z"/>
<path d="M2608 2358 c9 -9 15 -9 24 0 9 9 7 12 -12 12 -19 0 -21 -3 -12 -12z"/>
<path d="M255 2340 c-3 -5 3 -10 14 -10 12 0 21 5 21 10 0 6 -6 10 -14 10 -8
0 -18 -4 -21 -10z"/>
<path d="M986 2318 c-15 -23 -12 -68 5 -68 12 0 11 -57 -1 -65 -13 -8 -13 -65
-1 -65 5 0 12 -10 14 -22 3 -13 3 -5 1 18 -2 22 1 45 6 50 7 7 6 31 -1 69 -9
51 -9 61 5 71 14 10 14 13 2 23 -12 10 -18 8 -30 -11z"/>
<path d="M1373 2332 c-18 -2 -33 -9 -33 -16 0 -20 12 -27 26 -15 7 5 41 9 76
7 l63 -3 6 -35 6 -35 2 32 c0 18 8 36 16 40 18 10 -111 30 -162 25z"/>
<path d="M3290 2325 c-11 -13 -8 -15 19 -15 36 0 39 5 12 19 -14 8 -22 7 -31
-4z"/>
<path d="M790 2316 c0 -9 5 -16 10 -16 6 0 10 4 10 9 0 6 -4 13 -10 16 -5 3
-10 -1 -10 -9z"/>
<path d="M1678 2313 c7 -3 16 -2 19 1 4 3 -2 6 -13 5 -11 0 -14 -3 -6 -6z"/>
<path d="M3038 2313 c7 -3 16 -2 19 1 4 3 -2 6 -13 5 -11 0 -14 -3 -6 -6z"/>
<path d="M3188 2313 c6 -2 12 -13 12 -24 0 -26 13 -24 27 6 11 24 10 25 -20
24 -18 0 -26 -3 -19 -6z"/>
<path d="M190 2289 c0 -5 5 -7 10 -4 6 3 10 8 10 11 0 2 -4 4 -10 4 -5 0 -10
-5 -10 -11z"/>
<path d="M701 2284 c0 -11 3 -14 6 -6 3 7 2 16 -1 19 -3 4 -6 -2 -5 -13z"/>
<path d="M1740 2290 c0 -5 5 -10 10 -10 6 0 10 5 10 10 0 6 -4 10 -10 10 -5 0
-10 -4 -10 -10z"/>
<path d="M2950 2290 c0 -5 5 -10 11 -10 5 0 7 5 4 10 -3 6 -8 10 -11 10 -2 0
-4 -4 -4 -10z"/>
<path d="M3982 2237 c-14 -61 -15 -77 -4 -77 19 0 44 62 38 96 -10 48 -19 42
-34 -19z"/>
<path d="M810 2266 c0 -8 5 -18 10 -21 6 -3 10 1 10 9 0 8 -4 18 -10 21 -5 3
-10 -1 -10 -9z"/>
<path d="M1766 2255 c-4 -11 1 -15 19 -15 13 0 26 -4 30 -10 3 -5 13 -6 22 -3
13 5 15 2 9 -12 -4 -11 -2 -22 6 -26 8 -5 12 -29 12 -63 -1 -51 0 -54 18 -43
28 18 34 48 12 64 -16 12 -17 16 -6 34 8 13 11 32 7 51 -5 20 -10 26 -15 18
-6 -9 -14 -8 -38 4 -39 20 -68 20 -76 1z"/>
<path d="M2894 2259 c-3 -6 -17 -9 -30 -6 -27 5 -40 -19 -29 -53 9 -28 22 -25
52 10 29 36 51 38 62 8 8 -21 8 -21 13 5 4 20 0 30 -13 37 -23 13 -46 13 -55
-1z"/>
<path d="M3391 2254 c0 -11 3 -14 6 -6 3 7 2 16 -1 19 -3 4 -6 -2 -5 -13z"/>
<path d="M3640 2216 c0 -50 19 -64 22 -16 0 17 1 35 2 42 1 6 -5 13 -11 16 -9
2 -13 -10 -13 -42z"/>
<path d="M3850 2245 c0 -9 5 -15 11 -13 6 2 11 8 11 13 0 5 -5 11 -11 13 -6 2
-11 -4 -11 -13z"/>
<path d="M4804 2228 c-44 -48 -61 -85 -46 -100 10 -10 23 -1 62 42 27 30 49
62 47 70 -4 27 -32 21 -63 -12z"/>
<path d="M4975 2243 c-50 -6 -65 -18 -65 -53 0 -16 -12 -61 -26 -102 -41 -114
-41 -126 -8 -134 75 -19 294 160 294 241 0 50 -49 62 -195 48z m122 -69 c10
-26 -122 -144 -161 -144 -20 0 -20 0 6 77 25 72 37 81 106 82 30 1 44 -4 49
-15z"/>
<path d="M4620 2231 c-18 -5 -25 -14 -25 -31 0 -16 6 -25 15 -25 26 0 28 -15
9 -76 -26 -84 -36 -99 -64 -99 -31 0 -51 -33 -30 -50 19 -16 151 2 173 24 22
22 8 48 -23 40 -32 -8 -32 5 -4 88 26 75 33 86 62 90 14 2 22 10 22 23 0 17
-7 20 -55 22 -30 1 -66 -2 -80 -6z"/>
<path d="M842 2195 c0 -16 2 -22 5 -12 2 9 2 23 0 30 -3 6 -5 -1 -5 -18z"/>
<path d="M1560 2172 c0 -16 28 -34 34 -23 4 6 -3 15 -14 21 -11 6 -20 7 -20 2z"/>
<path d="M2818 2135 c5 -59 32 -64 32 -6 0 33 -12 51 -33 51 -1 0 -1 -20 1
-45z"/>
<path d="M3881 2164 c0 -11 3 -14 6 -6 3 7 2 16 -1 19 -3 4 -6 -2 -5 -13z"/>
<path d="M3813 2135 c0 -22 2 -30 4 -17 2 12 2 30 0 40 -3 9 -5 -1 -4 -23z"/>
<path d="M475 2147 c-10 -8 -15 -19 -11 -26 9 -14 22 -7 36 20 12 22 2 25 -25
6z"/>
<path d="M862 2130 c0 -14 2 -19 5 -12 2 6 2 18 0 25 -3 6 -5 1 -5 -13z"/>
<path d="M3645 2130 c-4 -6 -3 -16 3 -22 6 -6 12 -6 17 2 4 6 3 16 -3 22 -6 6
-12 6 -17 -2z"/>
<path d="M2790 2115 c0 -8 4 -15 10 -15 5 0 7 7 4 15 -4 8 -8 15 -10 15 -2 0
-4 -7 -4 -15z"/>
<path d="M3924 2095 c-4 -11 -10 -22 -14 -25 -11 -9 -60 -102 -60 -115 0 -8
-4 -15 -8 -17 -5 -1 -26 -38 -47 -81 -41 -85 -76 -118 -103 -100 -14 8 -21 1
-44 -46 -15 -31 -28 -63 -28 -73 0 -9 -11 -38 -24 -65 -13 -26 -29 -68 -36
-93 -33 -125 -88 -245 -142 -308 -15 -18 -28 -38 -28 -45 0 -7 3 -8 8 -2 4 6
17 16 30 23 20 11 22 10 22 -16 0 -15 -5 -33 -10 -38 -9 -9 -17 -51 -19 -101
-1 -6 -8 -19 -17 -28 -13 -12 -14 -19 -5 -28 13 -13 15 -63 2 -71 -4 -3 -11
-35 -14 -72 -4 -36 -10 -71 -15 -78 -5 -6 -12 -29 -15 -51 -3 -22 -12 -86 -21
-142 -9 -56 -25 -181 -36 -278 -13 -114 -26 -184 -36 -200 -9 -13 -13 -29 -9
-35 4 -7 122 -10 353 -9 191 0 340 3 332 6 -42 15 -124 60 -195 108 -44 29
-111 71 -150 93 -38 22 -106 65 -150 94 -69 45 -80 57 -77 78 2 14 3 53 2 88
-1 41 4 71 13 86 8 12 17 44 20 71 4 43 33 193 66 345 5 25 19 92 31 150 12
58 41 168 65 245 24 77 55 180 70 229 28 95 51 125 96 126 20 0 31 8 43 33 9
17 20 39 25 47 5 8 26 52 47 98 21 45 43 82 50 82 7 0 15 19 19 43 4 23 12 47
17 54 5 7 8 18 5 25 -3 9 -7 6 -13 -7z"/>
<path d="M890 2067 c0 -7 4 -17 9 -22 5 -6 11 -23 14 -40 3 -22 4 -17 6 16 1
33 -3 49 -14 53 -8 3 -15 0 -15 -7z"/>
<path d="M3738 2050 c-4 -8 -9 -31 -12 -50 -3 -19 -9 -52 -12 -72 -5 -25 -3
-38 5 -38 6 0 11 13 11 28 0 15 5 33 11 39 5 5 9 32 7 59 -2 27 -6 42 -10 34z"/>
<path d="M1022 2030 c0 -14 2 -19 5 -12 2 6 2 18 0 25 -3 6 -5 1 -5 -13z"/>
<path d="M1830 2035 c-6 -7 -24 -16 -38 -18 -26 -4 -26 -4 3 -5 32 -1 73 22
57 32 -5 3 -15 -1 -22 -9z"/>
<path d="M3811 2034 c0 -11 3 -14 6 -6 3 7 2 16 -1 19 -3 4 -6 -2 -5 -13z"/>
<path d="M2908 2013 c7 -3 16 -2 19 1 4 3 -2 6 -13 5 -11 0 -14 -3 -6 -6z"/>
<path d="M657 2003 c-13 -12 -7 -23 13 -23 11 0 20 7 20 15 0 15 -21 21 -33 8z"/>
<path d="M842 1980 c0 -14 2 -19 5 -12 2 6 2 18 0 25 -3 6 -5 1 -5 -13z"/>
<path d="M927 1929 c-3 -12 1 -35 9 -53 17 -33 82 -86 108 -86 9 0 16 -8 16
-17 0 -16 18 -99 40 -185 6 -21 15 -57 20 -80 6 -24 18 -64 25 -89 8 -26 15
-58 15 -72 0 -14 4 -28 9 -31 4 -3 11 -22 14 -43 3 -21 14 -81 23 -133 13 -72
17 -156 18 -350 1 -140 -2 -267 -6 -282 -8 -26 -36 -45 -188 -126 -96 -51
-208 -111 -270 -145 -59 -33 -103 -55 -220 -111 -74 -35 -220 -113 -229 -122
-2 -2 260 -4 583 -4 l588 0 -81 86 c-44 47 -90 106 -102 131 -25 51 -28 108
-34 573 -2 157 -5 296 -7 310 -2 20 1 24 17 22 11 -2 22 -8 23 -13 2 -5 8 -9
13 -9 5 0 -7 26 -28 58 -55 85 -100 173 -106 213 -19 107 -25 138 -34 174 -6
22 -16 64 -22 93 -38 184 -60 262 -72 262 -5 0 -9 -13 -9 -30 0 -56 -55 -28
-85 43 -18 43 -21 45 -28 16z"/>
<path d="M3481 1934 c0 -11 3 -14 6 -6 3 7 2 16 -1 19 -3 4 -6 -2 -5 -13z"/>
<path d="M3390 1898 c0 -19 2 -20 10 -8 13 19 13 30 0 30 -5 0 -10 -10 -10
-22z"/>
<path d="M3901 1854 c0 -11 3 -14 6 -6 3 7 2 16 -1 19 -3 4 -6 -2 -5 -13z"/>
<path d="M3692 1840 c0 -14 2 -19 5 -12 2 6 2 18 0 25 -3 6 -5 1 -5 -13z"/>
<path d="M4774 1803 c-64 -154 -93 -178 -94 -76 0 97 -49 124 -78 43 -18 -48
-62 -120 -74 -120 -12 0 -9 68 4 112 10 33 9 41 -5 56 -37 36 -64 -33 -74
-186 -3 -52 -1 -88 5 -94 21 -21 57 2 91 57 46 75 59 84 66 48 16 -79 26 -103
43 -103 33 0 162 216 162 273 0 40 -28 34 -46 -10z"/>
<path d="M4886 1818 c-9 -12 -16 -28 -16 -35 0 -7 -6 -27 -14 -45 -68 -160
-78 -203 -46 -203 14 0 28 31 84 178 27 70 33 112 17 122 -5 3 -17 -5 -25 -17z"/>
<path d="M5147 1833 c-2 -5 -10 -26 -17 -48 -6 -22 -19 -55 -27 -74 l-16 -35
-17 22 c-10 12 -24 42 -31 66 -7 25 -20 48 -28 51 -18 7 -50 -31 -51 -61 0
-11 -10 -42 -23 -70 -38 -81 -52 -133 -39 -146 17 -17 35 3 56 61 23 66 40 80
58 49 7 -13 20 -41 28 -63 24 -62 49 -55 73 20 10 33 23 69 27 80 4 11 18 44
30 73 17 42 19 57 9 68 -13 15 -25 18 -32 7z"/>
<path d="M5685 1741 c-10 -18 -8 -112 4 -124 8 -8 11 7 11 61 0 70 -3 82 -15
63z"/>
<path d="M3920 1634 c0 -8 5 -12 10 -9 6 3 10 10 10 16 0 5 -4 9 -10 9 -5 0
-10 -7 -10 -16z"/>
<path d="M5184 1585 c-17 -26 -12 -45 11 -45 22 0 69 45 61 58 -13 21 -55 13
-72 -13z"/>
<path d="M4037 1576 c-4 -10 -7 -33 -7 -52 0 -27 4 -34 19 -34 28 0 30 9 11
59 -13 33 -18 39 -23 27z"/>
<path d="M5660 1530 c0 -5 5 -10 10 -10 6 0 10 5 10 10 0 6 -4 10 -10 10 -5 0
-10 -4 -10 -10z"/>
<path d="M3716 1480 c-17 -27 -26 -51 -24 -68 l4 -27 13 30 c7 16 19 45 28 63
23 48 10 49 -21 2z"/>
<path d="M5641 1484 c0 -11 3 -14 6 -6 3 7 2 16 -1 19 -3 4 -6 -2 -5 -13z"/>
<path d="M4042 1420 c0 -14 2 -19 5 -12 2 6 2 18 0 25 -3 6 -5 1 -5 -13z"/>
<path d="M5500 1252 c0 -25 -71 -87 -135 -118 l-70 -33 69 2 69 2 43 72 c24
40 39 75 33 78 -5 4 -9 2 -9 -3z"/>
<path d="M4519 1091 c13 -12 30 -21 38 -21 7 0 21 -4 31 -9 9 -5 32 -15 50
-22 18 -6 39 -24 47 -38 9 -17 14 -20 15 -10 0 9 7 22 15 29 9 7 15 23 13 34
-3 18 -10 21 -68 21 -36 1 -74 6 -85 12 -11 5 -33 13 -50 17 l-30 8 24 -21z"/>
<path d="M3322 1065 c-20 -19 -29 -35 -24 -39 10 -6 69 60 61 68 -2 2 -19 -11
-37 -29z"/>
<path d="M1320 1081 c0 -6 5 -13 10 -16 6 -3 10 1 10 9 0 9 -4 16 -10 16 -5 0
-10 -4 -10 -9z"/>
<path d="M1351 1044 c0 -11 3 -14 6 -6 3 7 2 16 -1 19 -3 4 -6 -2 -5 -13z"/>
<path d="M3266 1001 c-11 -12 -17 -23 -15 -25 8 -8 41 23 37 34 -2 7 -11 3
-22 -9z"/>
<path d="M2915 963 l-30 -26 40 7 c45 8 60 19 51 35 -11 17 -29 13 -61 -16z"/>
<path d="M1420 953 c0 -7 5 -13 10 -13 6 0 10 -6 10 -14 0 -15 28 -42 35 -34
3 2 -9 20 -25 39 -16 19 -29 28 -30 22z"/>
<path d="M1732 951 c-19 -12 14 -24 41 -15 16 5 17 8 6 15 -18 11 -30 11 -47
0z"/>
<path d="M4710 944 c0 -8 5 -12 10 -9 6 4 8 11 5 16 -9 14 -15 11 -15 -7z"/>
<path d="M3200 919 c0 -5 5 -7 10 -4 6 3 10 8 10 11 0 2 -4 4 -10 4 -5 0 -10
-5 -10 -11z"/>
<path d="M1950 901 c0 -6 9 -11 20 -11 11 0 20 -4 20 -8 0 -5 16 -17 35 -28
19 -10 35 -22 35 -25 0 -11 60 -21 145 -24 44 -1 55 0 25 2 -51 4 -80 20 -80
45 0 4 89 8 198 9 108 0 206 4 217 8 l20 8 -20 6 c-50 14 -280 29 -343 22 -89
-11 -221 -11 -249 -1 -15 6 -23 4 -23 -3z"/>
<path d="M2650 901 c-43 -9 -60 -18 -60 -34 0 -24 -56 -46 -133 -53 -108 -10
-89 -29 20 -21 68 5 92 11 117 30 47 35 105 67 122 67 8 0 12 5 9 10 -7 11
-22 11 -75 1z"/>
<path d="M1485 870 c3 -5 8 -10 11 -10 2 0 4 5 4 10 0 6 -5 10 -11 10 -5 0 -7
-4 -4 -10z"/>
<path d="M4597 820 c-3 -11 -1 -20 4 -20 5 0 9 9 9 20 0 11 -2 20 -4 20 -2 0
-6 -9 -9 -20z"/>
<path d="M1555 780 c3 -5 8 -10 11 -10 2 0 4 5 4 10 0 6 -5 10 -11 10 -5 0 -7
-4 -4 -10z"/>
<path d="M2077 772 c1 -8 3 -16 3 -18 0 -2 7 -4 15 -4 8 0 15 5 15 10 0 6 -6
10 -14 10 -8 0 -16 3 -19 8 -2 4 -2 1 0 -6z"/>
<path d="M3020 729 c-30 -39 -35 -49 -21 -49 6 0 11 5 11 10 0 6 11 22 25 36
26 26 30 34 18 34 -5 0 -19 -14 -33 -31z"/>
<path d="M2120 742 c0 -12 268 -24 305 -13 23 7 5 10 -75 11 -58 1 -133 3
-167 6 -36 3 -63 2 -63 -4z"/>
<path d="M2488 733 c7 -3 16 -2 19 1 4 3 -2 6 -13 5 -11 0 -14 -3 -6 -6z"/>
<path d="M1600 720 c0 -5 5 -10 11 -10 5 0 7 5 4 10 -3 6 -8 10 -11 10 -2 0
-4 -4 -4 -10z"/>
<path d="M1625 690 c3 -5 8 -10 11 -10 2 0 4 5 4 10 0 6 -5 10 -11 10 -5 0 -7
-4 -4 -10z"/>
<path d="M2800 506 c-95 -96 -189 -183 -209 -192 -20 -9 -54 -25 -75 -35 -34
-16 -64 -19 -200 -19 -212 0 -254 13 -392 116 -40 29 -82 67 -95 83 -13 16
-46 56 -72 90 -49 61 -67 74 -67 46 0 -8 -4 -15 -10 -15 -5 0 -10 -7 -10 -15
0 -8 5 -15 10 -15 6 0 10 7 10 15 0 26 14 16 45 -30 16 -24 40 -49 52 -56 13
-7 23 -15 23 -19 0 -4 42 -50 93 -102 101 -103 85 -95 242 -118 33 -4 78 -13
100 -19 22 -6 91 -11 153 -11 122 0 145 8 224 78 16 15 43 39 59 53 16 14 29
30 29 34 0 11 81 85 92 85 4 0 8 7 8 16 0 14 3 14 15 4 14 -12 19 -7 16 13 -1
5 12 25 29 45 17 21 36 44 42 52 6 8 25 30 41 47 17 18 28 35 25 38 -3 3 -83
-73 -178 -169z"/>
<path d="M1645 638 c0 -23 5 -33 15 -33 20 0 25 32 6 50 -20 20 -21 20 -21
-17z"/>
<path d="M1740 386 c0 -8 5 -18 10 -21 6 -3 10 1 10 9 0 8 -4 18 -10 21 -5 3
-10 -1 -10 -9z"/>
<path d="M2760 380 c0 -5 5 -10 10 -10 6 0 10 5 10 10 0 6 -4 10 -10 10 -5 0
-10 -4 -10 -10z"/>
<path d="M1771 335 c-1 -25 15 -52 26 -42 4 5 2 11 -4 15 -6 4 -13 16 -16 27
l-5 20 -1 -20z"/>
<path d="M1502 164 c1 -9 9 -19 16 -22 9 -3 13 2 10 14 -1 9 -9 19 -16 22 -9
3 -13 -2 -10 -14z"/>
<path d="M2887 153 c-4 -3 -7 -13 -7 -21 0 -12 3 -12 15 -2 8 7 15 16 15 21 0
11 -14 12 -23 2z"/>
<path d="M1541 114 c0 -11 3 -14 6 -6 3 7 2 16 -1 19 -3 4 -6 -2 -5 -13z"/>
<path d="M1880 110 c0 -5 5 -10 10 -10 6 0 10 5 10 10 0 6 -4 10 -10 10 -5 0
-10 -4 -10 -10z"/>
<path d="M2861 104 c0 -11 3 -14 6 -6 3 7 2 16 -1 19 -3 4 -6 -2 -5 -13z"/>
<path d="M2973 35 c0 -22 2 -30 4 -17 2 12 2 30 0 40 -3 9 -5 -1 -4 -23z"/>
<path d="M1670 9 c0 -5 5 -7 10 -4 6 3 10 8 10 11 0 2 -4 4 -10 4 -5 0 -10 -5
-10 -11z"/>
<path d="M2790 10 c0 -5 7 -7 15 -4 8 4 15 8 15 10 0 2 -7 4 -15 4 -8 0 -15
-4 -15 -10z"/>
</g>
</svg>
